<mxfile host="app.diagrams.net" modified="2022-08-29T03:15:06.925Z" agent="5.0 (Windows NT 10.0; Win64; x64) AppleWebKit/537.36 (KHTML, like Gecko) Chrome/104.0.0.0 Safari/537.36" etag="0ZUt1XNp3pyvRGg89Ev4" version="20.2.3" type="github">
  <diagram id="TPMIT6s86Ufll7g9VifV" name="第 1 页">
    <mxGraphModel dx="1185" dy="635" grid="1" gridSize="10" guides="1" tooltips="1" connect="1" arrows="1" fold="1" page="1" pageScale="1" pageWidth="827" pageHeight="1169" math="0" shadow="0">
      <root>
        <mxCell id="0" />
        <mxCell id="1" parent="0" />
        <mxCell id="IvcYByv13Ctfvqyv7YOf-30" style="edgeStyle=orthogonalEdgeStyle;rounded=0;orthogonalLoop=1;jettySize=auto;html=1;entryX=0;entryY=0.5;entryDx=0;entryDy=0;" edge="1" parent="1" source="IvcYByv13Ctfvqyv7YOf-6" target="IvcYByv13Ctfvqyv7YOf-9">
          <mxGeometry relative="1" as="geometry" />
        </mxCell>
        <mxCell id="IvcYByv13Ctfvqyv7YOf-6" value="Function CRDs" style="shape=document;whiteSpace=wrap;html=1;boundedLbl=1;sketch=1;fontStyle=1" vertex="1" parent="1">
          <mxGeometry x="40" y="155" width="120" height="50" as="geometry" />
        </mxCell>
        <mxCell id="IvcYByv13Ctfvqyv7YOf-31" value="" style="edgeStyle=orthogonalEdgeStyle;rounded=0;orthogonalLoop=1;jettySize=auto;html=1;" edge="1" parent="1" source="IvcYByv13Ctfvqyv7YOf-8" target="IvcYByv13Ctfvqyv7YOf-15">
          <mxGeometry relative="1" as="geometry" />
        </mxCell>
        <mxCell id="IvcYByv13Ctfvqyv7YOf-8" value="FunctionPool CRDs" style="shape=document;whiteSpace=wrap;html=1;boundedLbl=1;sketch=1;fontStyle=1" vertex="1" parent="1">
          <mxGeometry x="40" y="235" width="120" height="50" as="geometry" />
        </mxCell>
        <mxCell id="IvcYByv13Ctfvqyv7YOf-9" value="Function Controller" style="rounded=0;whiteSpace=wrap;html=1;sketch=1;fontStyle=1" vertex="1" parent="1">
          <mxGeometry x="240" y="160" width="120" height="40" as="geometry" />
        </mxCell>
        <mxCell id="IvcYByv13Ctfvqyv7YOf-10" value="HTTPRoute" style="rounded=0;whiteSpace=wrap;html=1;sketch=1;fontStyle=1" vertex="1" parent="1">
          <mxGeometry x="440" y="80" width="80" height="40" as="geometry" />
        </mxCell>
        <mxCell id="IvcYByv13Ctfvqyv7YOf-11" value="Trigger" style="rounded=0;whiteSpace=wrap;html=1;sketch=1;fontStyle=1" vertex="1" parent="1">
          <mxGeometry x="600" y="80" width="80" height="40" as="geometry" />
        </mxCell>
        <mxCell id="IvcYByv13Ctfvqyv7YOf-12" value="Dispatcher" style="rounded=0;whiteSpace=wrap;html=1;sketch=1;fontStyle=1" vertex="1" parent="1">
          <mxGeometry x="500" y="200" width="120" height="40" as="geometry" />
        </mxCell>
        <mxCell id="IvcYByv13Ctfvqyv7YOf-13" value="" style="rounded=0;whiteSpace=wrap;html=1;sketch=1;dashed=1;" vertex="1" parent="1">
          <mxGeometry x="200" y="390" width="200" height="170" as="geometry" />
        </mxCell>
        <mxCell id="IvcYByv13Ctfvqyv7YOf-14" value="" style="rounded=0;whiteSpace=wrap;html=1;sketch=1;dashed=1;" vertex="1" parent="1">
          <mxGeometry x="520" y="390" width="200" height="170" as="geometry" />
        </mxCell>
        <mxCell id="IvcYByv13Ctfvqyv7YOf-33" value="Create" style="edgeStyle=orthogonalEdgeStyle;rounded=0;orthogonalLoop=1;jettySize=auto;html=1;" edge="1" parent="1" source="IvcYByv13Ctfvqyv7YOf-15" target="IvcYByv13Ctfvqyv7YOf-13">
          <mxGeometry relative="1" as="geometry" />
        </mxCell>
        <mxCell id="IvcYByv13Ctfvqyv7YOf-15" value="Function Pool Controller" style="rounded=0;whiteSpace=wrap;html=1;sketch=1;fontStyle=1" vertex="1" parent="1">
          <mxGeometry x="240" y="240" width="120" height="40" as="geometry" />
        </mxCell>
        <mxCell id="IvcYByv13Ctfvqyv7YOf-16" value="Function Pool&amp;nbsp;" style="text;html=1;resizable=0;autosize=1;align=center;verticalAlign=middle;points=[];fillColor=none;strokeColor=none;rounded=0;sketch=1;fontStyle=1" vertex="1" parent="1">
          <mxGeometry x="200" y="570" width="110" height="30" as="geometry" />
        </mxCell>
        <mxCell id="IvcYByv13Ctfvqyv7YOf-17" value="Service" style="rounded=0;whiteSpace=wrap;html=1;sketch=1;fontStyle=1" vertex="1" parent="1">
          <mxGeometry x="240" y="410" width="120" height="30" as="geometry" />
        </mxCell>
        <mxCell id="IvcYByv13Ctfvqyv7YOf-18" value="Pod" style="rounded=0;whiteSpace=wrap;html=1;sketch=1;fontStyle=1" vertex="1" parent="1">
          <mxGeometry x="240" y="460" width="120" height="30" as="geometry" />
        </mxCell>
        <mxCell id="IvcYByv13Ctfvqyv7YOf-19" value="AutoScaling" style="rounded=0;whiteSpace=wrap;html=1;sketch=1;fontStyle=1" vertex="1" parent="1">
          <mxGeometry x="240" y="510" width="120" height="30" as="geometry" />
        </mxCell>
        <mxCell id="IvcYByv13Ctfvqyv7YOf-20" value="Service" style="rounded=0;whiteSpace=wrap;html=1;sketch=1;fontStyle=1" vertex="1" parent="1">
          <mxGeometry x="560" y="410" width="120" height="30" as="geometry" />
        </mxCell>
        <mxCell id="IvcYByv13Ctfvqyv7YOf-21" value="Pod" style="rounded=0;whiteSpace=wrap;html=1;sketch=1;fontStyle=1" vertex="1" parent="1">
          <mxGeometry x="560" y="460" width="120" height="30" as="geometry" />
        </mxCell>
        <mxCell id="IvcYByv13Ctfvqyv7YOf-22" value="AutoScaling" style="rounded=0;whiteSpace=wrap;html=1;sketch=1;fontStyle=1" vertex="1" parent="1">
          <mxGeometry x="560" y="510" width="120" height="30" as="geometry" />
        </mxCell>
        <mxCell id="IvcYByv13Ctfvqyv7YOf-23" value="Specific Function" style="text;html=1;resizable=0;autosize=1;align=center;verticalAlign=middle;points=[];fillColor=none;strokeColor=none;rounded=0;sketch=1;fontStyle=1" vertex="1" parent="1">
          <mxGeometry x="520" y="570" width="120" height="30" as="geometry" />
        </mxCell>
        <mxCell id="IvcYByv13Ctfvqyv7YOf-24" value="Watch" style="endArrow=classic;html=1;rounded=0;exitX=1;exitY=0.25;exitDx=0;exitDy=0;entryX=0.406;entryY=1.042;entryDx=0;entryDy=0;entryPerimeter=0;" edge="1" parent="1" source="IvcYByv13Ctfvqyv7YOf-9" target="IvcYByv13Ctfvqyv7YOf-10">
          <mxGeometry width="50" height="50" relative="1" as="geometry">
            <mxPoint x="350" y="340" as="sourcePoint" />
            <mxPoint x="400" y="290" as="targetPoint" />
          </mxGeometry>
        </mxCell>
        <mxCell id="IvcYByv13Ctfvqyv7YOf-25" value="Request" style="endArrow=classic;html=1;rounded=0;exitX=0.5;exitY=1;exitDx=0;exitDy=0;" edge="1" parent="1" source="IvcYByv13Ctfvqyv7YOf-10" target="IvcYByv13Ctfvqyv7YOf-12">
          <mxGeometry width="50" height="50" relative="1" as="geometry">
            <mxPoint x="350" y="340" as="sourcePoint" />
            <mxPoint x="400" y="290" as="targetPoint" />
          </mxGeometry>
        </mxCell>
        <mxCell id="IvcYByv13Ctfvqyv7YOf-26" value="Message" style="endArrow=classic;html=1;rounded=0;exitX=0.5;exitY=1;exitDx=0;exitDy=0;entryX=0.75;entryY=0;entryDx=0;entryDy=0;" edge="1" parent="1" source="IvcYByv13Ctfvqyv7YOf-11" target="IvcYByv13Ctfvqyv7YOf-12">
          <mxGeometry width="50" height="50" relative="1" as="geometry">
            <mxPoint x="350" y="340" as="sourcePoint" />
            <mxPoint x="400" y="290" as="targetPoint" />
          </mxGeometry>
        </mxCell>
        <mxCell id="IvcYByv13Ctfvqyv7YOf-27" value="cold start" style="endArrow=classic;html=1;rounded=0;exitX=0.361;exitY=1.042;exitDx=0;exitDy=0;exitPerimeter=0;entryX=0.679;entryY=0.01;entryDx=0;entryDy=0;entryPerimeter=0;" edge="1" parent="1" source="IvcYByv13Ctfvqyv7YOf-12" target="IvcYByv13Ctfvqyv7YOf-13">
          <mxGeometry width="50" height="50" relative="1" as="geometry">
            <mxPoint x="350" y="340" as="sourcePoint" />
            <mxPoint x="400" y="290" as="targetPoint" />
          </mxGeometry>
        </mxCell>
        <mxCell id="IvcYByv13Ctfvqyv7YOf-28" value="normal" style="endArrow=classic;html=1;rounded=0;exitX=0.75;exitY=1;exitDx=0;exitDy=0;entryX=0.354;entryY=-0.005;entryDx=0;entryDy=0;entryPerimeter=0;" edge="1" parent="1" source="IvcYByv13Ctfvqyv7YOf-12" target="IvcYByv13Ctfvqyv7YOf-14">
          <mxGeometry width="50" height="50" relative="1" as="geometry">
            <mxPoint x="350" y="340" as="sourcePoint" />
            <mxPoint x="400" y="290" as="targetPoint" />
          </mxGeometry>
        </mxCell>
        <mxCell id="IvcYByv13Ctfvqyv7YOf-35" value="Create" style="endArrow=classic;html=1;rounded=0;exitX=0.75;exitY=1;exitDx=0;exitDy=0;entryX=0.225;entryY=0;entryDx=0;entryDy=0;entryPerimeter=0;" edge="1" parent="1" source="IvcYByv13Ctfvqyv7YOf-9" target="IvcYByv13Ctfvqyv7YOf-14">
          <mxGeometry width="50" height="50" relative="1" as="geometry">
            <mxPoint x="350" y="340" as="sourcePoint" />
            <mxPoint x="400" y="290" as="targetPoint" />
          </mxGeometry>
        </mxCell>
        <mxCell id="IvcYByv13Ctfvqyv7YOf-36" value="Watch" style="endArrow=classic;html=1;rounded=0;exitX=1;exitY=0.5;exitDx=0;exitDy=0;entryX=0.25;entryY=1;entryDx=0;entryDy=0;" edge="1" parent="1" source="IvcYByv13Ctfvqyv7YOf-9" target="IvcYByv13Ctfvqyv7YOf-11">
          <mxGeometry width="50" height="50" relative="1" as="geometry">
            <mxPoint x="350" y="340" as="sourcePoint" />
            <mxPoint x="400" y="290" as="targetPoint" />
          </mxGeometry>
        </mxCell>
        <mxCell id="IvcYByv13Ctfvqyv7YOf-37" value="Gateway" style="endArrow=classic;html=1;rounded=0;" edge="1" parent="1" target="IvcYByv13Ctfvqyv7YOf-10">
          <mxGeometry width="50" height="50" relative="1" as="geometry">
            <mxPoint x="480" y="10" as="sourcePoint" />
            <mxPoint x="354" y="330" as="targetPoint" />
          </mxGeometry>
        </mxCell>
        <mxCell id="IvcYByv13Ctfvqyv7YOf-40" value="EventBus" style="endArrow=classic;html=1;rounded=0;" edge="1" parent="1">
          <mxGeometry width="50" height="50" relative="1" as="geometry">
            <mxPoint x="639.17" y="10" as="sourcePoint" />
            <mxPoint x="639.17" y="80" as="targetPoint" />
          </mxGeometry>
        </mxCell>
      </root>
    </mxGraphModel>
  </diagram>
</mxfile>
